<svg xmlns="http://www.w3.org/2000/svg" version="1.1" xmlns:xlink="http://www.w3.org/1999/xlink" xmlns:svgjs="http://svgjs.dev/svgjs" width="1440" height="720" preserveAspectRatio="none" viewBox="0 0 1440 720">
    <g mask="url(&quot;#SvgjsMask1009&quot;)" fill="none">
        <rect width="1440" height="720" x="0" y="0" fill="rgba(36, 37, 39, 1)"></rect>
        <path d="M0,474.931C89.274,457.26,177.364,444.053,256.538,399.18C339.27,352.29,416.753,294.425,464.047,211.923C513.996,124.79,551.39,21.846,528.966,-76.054C507.008,-171.919,408.358,-223.797,346.697,-300.415C282.065,-380.726,249.142,-489.577,157.765,-537.298C59.374,-588.682,-58.467,-592.051,-166.98,-568.681C-280.436,-544.247,-410.307,-505.363,-465.233,-403.126C-520.156,-300.894,-449.832,-178.572,-438.617,-63.064C-430.355,22.022,-423.586,102.274,-407.999,186.327C-387.03,299.404,-425.208,449.127,-331.318,515.541C-238.603,581.124,-111.405,496.982,0,474.931" fill="#1d1e1f"></path>
        <path d="M1440 1212.797C1540.801 1205.432 1646.756 1228.2640000000001 1735.174 1179.3 1825.9560000000001 1129.027 1866.609 1026.612 1927.695 942.723 2005.604 835.731 2146.9120000000003 751.189 2143.25 618.888 2139.627 487.986 2003.479 404.487 1910.25 312.526 1823.8310000000001 227.28199999999998 1739.4560000000001 130.04200000000003 1620.962 103.70000000000005 1505.184 77.96199999999999 1393.817 141.88599999999997 1279.16 172.22799999999995 1160.864 203.53200000000004 1007.778 184.40499999999997 937.4839999999999 284.568 866.286 386.019 945.75 524.851 944.711 648.788 943.846 752.052 902.485 853.053 931.89 952.046 963.7370000000001 1059.258 1016.236 1173.4940000000001 1115.74 1224.558 1213.956 1274.96 1329.899 1220.841 1440 1212.797" fill="#2b2c2f"></path>
    </g>
    <defs>
        <mask id="SvgjsMask1009">
            <rect width="1440" height="720" fill="#ffffff"></rect>
        </mask>
    </defs>
</svg>